<svg width="22" height="20" viewBox="0 0 22 20" xmlns="http://www.w3.org/2000/svg">
  <path d="M11.0009 1.65429C13.5848 -0.627558 17.5777 -0.551821 20.0669 1.90098C22.5551 4.35486 22.6409 8.2629 20.3265 10.812L10.9987 20L1.67308 10.812C-0.641281 8.2629 -0.554383 4.34837 1.93267 1.90098C4.42412 -0.548575 8.40935 -0.630804 11.0009 1.65429Z" fill="red"/>
  <path d="M11.0009 5.65429C10.5349 6.30902 9.46511 6.30902 8.99914 5.65429L3.67308 0.810056C3.20422 0.154615 2.26669 0.154615 1.79783 0.810056C1.32723 1.46479 1.32723 2.53521 1.79783 3.18994L7.82334 9.18994C8.29219 9.84538 9.22972 9.84538 9.69858 9.18994L15.7241 3.18994C16.193 2.5345 17.1305 2.5345 17.5994 3.18994C18.069 3.84438 18.069 4.9148 17.5994 5.56954L12.2734 10.8138C11.8045 11.4692 10.8669 11.4692 10.398 10.8138L5.07204 5.56954C4.6022 4.9148 4.6022 3.84438 5.07204 3.18994C5.5419 2.5345 6.47943 2.5345 6.94827 3.18994L11.0009 5.65429Z" fill="red"/>
</svg>
